<?xml version="1.0" encoding="iso-8859-1"?>
<!-- Generator: Adobe Illustrator 19.0.0, SVG Export Plug-In . SVG Version: 6.00 Build 0)  -->
<svg version="1.1" id="Layer_1" fill="#fff" xmlns="http://www.w3.org/2000/svg" xmlns:xlink="http://www.w3.org/1999/xlink" x="0px" y="0px"
	 viewBox="0 0 512.001 512.001" style="enable-background:new 0 0 512.001 512.001;" xml:space="preserve">
<g>
	<g>
		<path d="M447.999,276.149l-23.668-69.953l-0.014,0.005c-0.165-0.491-0.364-0.972-0.621-1.432
			c-1.294-2.319-3.592-3.906-6.219-4.295l-96.575-14.287L264.294,69.623c-0.985-2.03-2.732-3.588-4.861-4.335L74.943,0.484
			c-3.271-1.149-6.914-0.211-9.222,2.378c-2.308,2.589-2.826,6.314-1.31,9.433l114.043,234.823L89.414,500.608
			c-1.188,3.382-0.143,7.145,2.62,9.43c1.571,1.299,3.507,1.963,5.455,1.963c1.477,0,2.963-0.382,4.299-1.159l111.128-64.592
			c2.924-1.7,4.573-4.962,4.208-8.323l-4.402-40.477l163.182-78.344c1.864-0.896,3.342-2.436,4.159-4.335l17.857-41.555
			l39.142,13.749c0.928,0.325,1.884,0.484,2.834,0.484c2.214,0,4.388-0.861,6.016-2.471
			C448.238,282.677,449.048,279.249,447.999,276.149z M113.25,484.384l70.03-199.367l16.227,149.232L113.25,484.384z
			 M210.759,379.408l-13.076-120.247l152.189,53.458L210.759,379.408z M193.867,239.682L88.887,23.521l161.552,56.746
			l104.98,216.162L193.867,239.682z M371.723,290.827l-41.767-86.002l74.02,10.95L371.723,290.827z M404.69,257.456l10.585-24.632
			l10.885,32.173L404.69,257.456z"/>
	</g>
</g>
<g>
</g>
<g>
</g>
<g>
</g>
<g>
</g>
<g>
</g>
<g>
</g>
<g>
</g>
<g>
</g>
<g>
</g>
<g>
</g>
<g>
</g>
<g>
</g>
<g>
</g>
<g>
</g>
<g>
</g>
</svg>
