<svg id="_x33_0" enable-background="new 0 0 62 62.25" height="512" viewBox="0 0 62 62.25" width="512" xmlns="http://www.w3.org/2000/svg"><g><path d="m62 30v-14h-6.718c-2.065-1.305-4.438-2-6.887-2h-8.395c-1.103 0-2 .897-2 2 0 .732.212 1.409.556 2h-5.556c-1.654 0-3 1.346-3 3 0 1.239.755 2.305 1.829 2.762-1.179 1.205-1.829 2.793-1.829 4.552 0 2.012.901 3.887 2.472 5.144l8.528 6.823 8.528-6.822c.538-.431.991-.939 1.363-1.498 1.675-.153 3.239-.836 4.494-1.96h6.615zm-6-12h4v10h-4zm-7.722 13.897-7.278 5.822-7.278-5.822c-1.094-.876-1.722-2.181-1.722-3.654 0-1.179.459-2.288 1.293-3.122.713-.712 1.699-1.121 2.707-1.121s1.994.409 2.707 1.121l2.293 2.293 2.293-2.293c.713-.712 1.699-1.121 2.707-1.121s1.994.409 2.707 1.121c.834.834 1.293 1.942 1.293 3.193 0 1.402-.628 2.707-1.722 3.583zm1.843-8.19c-1.085-1.085-2.587-1.707-4.121-1.707-1.48 0-2.925.583-4 1.598v-.183c0-.645.251-1.251.707-1.707l-1.414-1.415c-.487.487-.828 1.074-1.043 1.708h-7.25c-.552 0-1-.449-1-1s.448-1 1-1h9 3.586l.293.293c1.085 1.084 2.587 1.706 4.121 1.706v-2c-1.008 0-1.994-.409-2.707-1.121l-.879-.879h-4.414c-1.103 0-2-.897-2-2h8.395c1.986 0 3.911.541 5.605 1.558v10.977c-.633.556-1.365.959-2.161 1.197.105-.48.161-.978.161-1.489 0-1.714-.667-3.325-1.879-4.536z"/><path d="m32.641 43.457c-.486-.81-1.126-1.501-1.868-2.049.74-.548 1.227-1.419 1.227-2.408 0-.771-.301-1.468-.78-2 .48-.532.78-1.229.78-2 0-1.654-1.346-3-3-3h-5.556c.344-.591.556-1.268.556-2 0-1.103-.897-2-2-2h-8.395c-2.449 0-4.822.695-6.887 2h-6.718v14h6.624c.567.505 1.201.932 1.888 1.255-.325.925-.512 1.896-.512 2.884 0 2.731 1.305 5.339 3.489 6.977l9.511 7.134 9.511-7.134c2.184-1.638 3.489-4.246 3.489-6.977 0-1.58-.43-3.131-1.242-4.485zm-6.641-3.457v.026c-1.476.109-2.863.663-4 1.606v-3.632h6 1c.552 0 1 .449 1 1s-.448 1-1 1zm-4-10c0 1.103-.897 2-2 2h-2.618l-.276.553c-.549 1.098-1.455 2.004-2.553 2.553l.895 1.789c1.293-.646 2.39-1.662 3.142-2.895h1.41 9c.552 0 1 .449 1 1s-.448 1-1 1h-1-6.25c-.215-.634-.556-1.221-1.043-1.708l-1.414 1.415c.456.456.707 1.062.707 1.707v4.218c-1.274-1.056-2.86-1.632-4.535-1.632-2.482 0-4.816 1.32-6.099 3.448-.496-.231-.953-.536-1.366-.896v-10.994c1.695-1.017 3.619-1.558 5.605-1.558zm-16 12h-4v-10h4zm23.312 11.517-8.312 6.233-8.312-6.233c-1.683-1.263-2.688-3.273-2.688-5.378 0-1.217.331-2.413.959-3.46l.115-.192c.92-1.534 2.603-2.487 4.391-2.487 1.367 0 2.653.533 3.621 1.5l1.914 1.915 1.914-1.915c.968-.967 2.254-1.5 3.621-1.5 1.788 0 3.471.953 4.39 2.483l.117.197c.627 1.046.958 2.242.958 3.459 0 2.105-1.005 4.115-2.688 5.378z"/><path d="m10.794 17.925c.216.313.459.609.754.862l6.452 5.53 6.53-5.598c.25-.214.467-.458.657-.719h1.813c1.654 0 3-1.346 3-3 0-.395-.081-.77-.22-1.116 1.275-.346 2.22-1.501 2.22-2.884 0-.771-.301-1.468-.78-2 .479-.532.78-1.229.78-2 0-1.654-1.346-3-3-3h-5.556c.344-.591.556-1.268.556-2 0-1.103-.897-2-2-2h-8.395c-2.449 0-4.822.695-6.887 2h-6.718v14h6.614c1.17 1.047 2.625 1.717 4.18 1.925zm13.206-2.4c0 .645-.281 1.256-.771 1.676l-5.229 4.482-5.15-4.415c-.54-.462-.85-1.136-.85-1.939 0-.59.229-1.144.646-1.561.488-.488 1.164-.768 1.854-.768s1.366.28 1.854.768l1.646 1.646 1.646-1.646c.4-.401.93-.664 1.491-.743.794-.11 1.643.169 2.216.743.418.417.647.971.647 1.561zm3 .475h-1.052c.019-.158.052-.314.052-.475v-.196c0-.461-.091-.904-.233-1.329h.233 1c.552 0 1 .449 1 1s-.448 1-1 1zm2-4h-2-1-1.631c-.681-.535-1.511-.867-2.369-.965v-1.035h6 1c.552 0 1 .449 1 1s-.448 1-1 1zm-7-10c0 1.103-.897 2-2 2h-2.618l-.276.553c-.549 1.098-1.455 2.004-2.553 2.553l.895 1.789c1.292-.647 2.389-1.662 3.141-2.895h1.411 9c.552 0 1 .449 1 1s-.448 1-1 1h-1-6.25c-.215-.634-.556-1.221-1.043-1.708l-1.414 1.415c.456.456.707 1.062.707 1.707v1.847c-.661.228-1.272.596-1.768 1.092l-.232.233-.232-.232c-.86-.861-2.051-1.354-3.268-1.354s-2.408.493-3.268 1.354c-.794.794-1.232 1.851-1.232 3.067 0 .092.024.18.029.271-.746-.243-1.433-.633-2.029-1.155v-10.979c1.695-1.017 3.619-1.558 5.605-1.558zm-16 12h-4v-10h4z"/></g></svg>