<svg id="Layer_1" height="512" viewBox="0 0 512 512" width="512" fill="#fff" xmlns="http://www.w3.org/2000/svg" data-name="Layer 1"><path d="m403.054 218.589-51.22-37.213v-30.564a12 12 0 0 0 -24 0v13.127l-64.78-47.066a12 12 0 0 0 -14.108 0l-140 101.716a12 12 0 0 0 14.108 19.416l5.4-3.922v128a35.374 35.374 0 0 0 35.333 35.333h184.427a35.374 35.374 0 0 0 35.334-35.333v-128l5.4 3.922a12 12 0 0 0 14.108-19.416zm-125.315 154.83h-43.478v-93.357h43.478zm81.809-11.333a11.346 11.346 0 0 1 -11.334 11.333h-46.475v-105.357a12 12 0 0 0 -12-12h-67.478a12 12 0 0 0 -12 12v105.357h-46.476a11.346 11.346 0 0 1 -11.333-11.333v-145.44l103.548-75.232 103.548 75.232zm-103.548-362.086c-141.159 0-256 114.841-256 256s114.841 256 256 256 256-114.841 256-256-114.841-256-256-256zm0 488c-127.925 0-232-104.075-232-232s104.075-232 232-232 232 104.075 232 232-104.075 232-232 232z"/></svg>