<svg id="Capa_1" enable-background="new 0 0 471.993 471.993" height="512" viewBox="0 0 471.993 471.993" width="512" fill="#fff" xmlns="http://www.w3.org/2000/svg"><g><g id="outline_34_"><path d="m347.574 150.381c-23.947-.027-47.387 6.898-67.474 19.934-7.71-8.116-20.141-13.817-31.246-17.6v-33.143c0-9.964-6.866-24.129-39.571-35.031-22.784-7.6-52.919-11.777-84.854-11.777s-62.075 4.182-84.859 11.777c-32.705 10.902-39.57 25.067-39.57 35.031v38.809c0 9.884 6.771 23.9 38.809 34.768v17.778c-31.884 10.771-38.809 24.716-38.809 34.771v38.809c0 9.884 6.771 23.9 38.809 34.768v33.147c0 9.964 6.865 24.129 39.57 35.031 22.784 7.6 52.92 11.777 84.855 11.777 48.137 0 90.214-9.369 110.644-24.238 55.346 40.707 133.213 28.84 173.92-26.506s28.84-133.213-26.506-173.92c-21.365-15.714-47.193-24.188-73.714-24.187zm-253.957 202.569c7.163 1.715 14.8 3.153 22.809 4.292v22.646c-7.679-1.137-15.293-2.678-22.809-4.617zm38.809 28.58v-22.453c7.411.658 15.04 1.077 22.808 1.248v22.805c-7.8-.179-15.439-.618-22.823-1.306.004-.098.015-.195.015-.294zm38.808-21.2c7.748-.175 15.383-.6 22.809-1.266v22.466c0 .107.012.21.016.316-7.188.666-14.805 1.11-22.825 1.289zm38.809-3.109c8.015-1.142 15.663-2.576 22.808-4.279v22.341c-7.515 1.947-15.129 3.493-22.808 4.632zm-46.809-12.8c-30.261 0-58.6-3.891-79.8-10.956-5.728-1.834-11.27-4.204-16.553-7.078 18.994 3.36 38.252 5.009 57.541 4.927 43.172 0 82.017-7.689 104.159-20.112 2.518 8.207 5.883 16.131 10.04 23.642-20.475 6.129-47.282 9.58-75.387 9.58zm-8-53.241v22.432c0 .083.01.164.013.246-7.394.7-15.039 1.168-22.821 1.356v-22.8c7.804-.167 15.433-.581 22.808-1.231zm0-126.149v22.453c0 .1.012.2.015.294-7.384.688-15.02 1.127-22.823 1.306v-22.802c7.768-.172 15.397-.59 22.808-1.248zm77.617-7.329c-.043.403-.054.808-.034 1.212-.482 4.32-6.749 10.989-22.774 17.22v-21.8c9.778-3.317 17.213-6.926 22.808-10.623zm-38.808 23.526c-7.516 1.939-15.13 3.48-22.809 4.617v-22.647c8.009-1.139 15.647-2.577 22.809-4.292zm-77.617 7.859c-7.8-.179-15.439-.618-22.824-1.306 0-.1.015-.195.015-.294v-22.453c7.412.658 15.041 1.077 22.809 1.248zm-38.809-3.242c-7.679-1.137-15.292-2.678-22.808-4.617v-22.321c7.162 1.715 14.8 3.153 22.808 4.292zm-22.808 25.788c5.595 3.7 13.029 7.306 22.808 10.623v21.8c-16.7-6.494-22.808-13.466-22.808-17.756zm38.808 15.189c7.163 1.715 14.8 3.153 22.809 4.292v22.646c-7.679-1.137-15.293-2.678-22.809-4.617zm38.809 28.58v-22.453c7.411.658 15.04 1.077 22.808 1.248v22.801c-7.8-.179-15.439-.618-22.823-1.306.004-.094.015-.194.015-.294zm38.808-21.2c7.777-.171 15.407-.583 22.809-1.238v22.434c0 .1.011.191.015.288-7.414.694-15.052 1.14-22.824 1.32zm51.921 41.028c.021 6.556.559 13.1 1.608 19.572-4.601 3.05-9.541 5.555-14.72 7.463v-21.767c4.468-1.504 8.846-3.264 13.112-5.272zm2.3-24.307c-4.931 1.083-10.089 2.024-15.416 2.829v-22.625c7.98-1.134 15.585-2.569 22.724-4.277-3.248 7.753-5.695 15.818-7.304 24.069zm-31.416 56.4c-7.521 1.911-15.133 3.439-22.809 4.578v-22.547c8.048-1.14 15.69-2.572 22.809-4.273zm-77.617 7.894c-7.8-.179-15.439-.618-22.824-1.306 0-.1.015-.195.015-.294v-22.455c7.412.658 15.041 1.076 22.809 1.248zm-38.809-3.242c-7.679-1.137-15.292-2.678-22.808-4.617v-22.323c7.162 1.715 14.8 3.153 22.808 4.292zm165.487-104.677c-20.939 7-49.889 11-79.87 11-30.261 0-58.6-3.891-79.8-10.956-5.728-1.834-11.27-4.204-16.553-7.078 18.994 3.36 38.252 5.009 57.541 4.927 31.935 0 62.07-4.182 84.854-11.777 22.452-7.484 32.725-16.506 36.96-24.651 9.277 3.369 16.5 7.245 20.885 11.209-9.291 7.892-17.382 17.098-24.017 27.326zm-198.47-107.578c21.2-7.066 49.534-10.956 79.8-10.956s58.6 3.89 79.8 10.956c21.132 7.045 28.63 15.1 28.63 19.852s-7.5 12.809-28.63 19.853c-21.2 7.065-49.534 10.956-79.8 10.956s-58.6-3.891-79.8-10.956c-21.13-7.044-28.63-15.097-28.63-19.853s7.5-12.807 28.63-19.852zm-28.63 58.661v-14.663c5.595 3.7 13.03 7.306 22.809 10.623v21.8c-16.709-6.498-22.809-13.47-22.809-17.76zm22.875 69.545c.744 9.837 8.542 23.081 39.5 33.4 22.784 7.595 52.92 11.777 84.855 11.777 2.906 0 5.8-.033 8.681-.1-15.719 2.363-31.594 3.536-47.489 3.509-30.262 0-58.6-3.891-79.8-10.956-21.122-7.047-28.622-15.1-28.622-19.858 0-4.737 7.163-11.647 22.875-17.772zm-22.875 56.583v-14.663c5.595 3.7 13.03 7.306 22.809 10.623v21.8c-16.709-6.499-22.809-13.471-22.809-17.76zm38.809 67.915v-14.663c5.595 3.7 13.029 7.306 22.808 10.623v21.8c-16.703-6.499-22.808-13.47-22.808-17.76zm194.042 17.73v-19.71c3.758 4.895 7.873 9.506 12.31 13.795-3.93 2.314-8.048 4.292-12.31 5.915zm98.723 13.078c-35.629-.01-68.978-17.532-89.2-46.866-.007-.017-.011-.035-.018-.053-.437-1.143-1.132-2.17-2.031-3-32.297-50.409-17.613-117.455 32.796-149.752s117.455-17.613 149.752 32.796 17.613 117.455-32.796 149.752c-17.461 11.187-37.764 17.131-58.501 17.126z"/><path d="m347.574 189.189c-47.286-.001-85.618 38.331-85.619 85.617s38.331 85.618 85.617 85.619 85.618-38.332 85.619-85.617v-.001c-.053-47.263-38.354-85.564-85.617-85.618zm0 155.235c-38.449.001-69.618-31.168-69.619-69.617s31.168-69.618 69.617-69.619 69.618 31.168 69.619 69.617v.002c-.046 38.429-31.188 69.571-69.617 69.617z"/><path d="m383.105 250.455-30.739-17.747c-2.475-1.429-5.525-1.429-8 0l-30.738 17.747c-2.475 1.429-4 4.07-4 6.928v35.493c0 2.858 1.525 5.499 4 6.928l30.738 17.747c2.475 1.429 5.525 1.429 8 0l30.739-17.746c2.475-1.429 4-4.071 4-6.929v-35.492c0-2.859-1.525-5.5-4-6.929zm-12 37.8-22.739 13.129-22.738-13.126v-26.255l22.738-13.129 22.739 13.129z"/></g></g></svg>