<svg id="Capa_1" enable-background="new 0 0 512 512" height="512" viewBox="0 0 512 512" width="512" xmlns="http://www.w3.org/2000/svg"><g><g><path d="m177.723 154.905h170.196c5.534 0 10.02-4.486 10.02-10.02s-4.486-10.02-10.02-10.02h-170.196c-5.534 0-10.02 4.486-10.02 10.02s4.486 10.02 10.02 10.02z"/><path d="m151.089 107.12c-4.337-3.437-10.639-2.707-14.076 1.63l-17.933 22.63-8.076-5.463c-4.583-3.102-10.812-1.898-13.913 2.685s-1.899 10.813 2.685 13.913l15.772 10.669c1.716 1.16 3.67 1.721 5.608 1.721 2.965 0 5.89-1.313 7.859-3.797l23.704-29.912c3.436-4.337 2.707-10.639-1.63-14.076z"/><path d="m177.723 238.952h170.196c5.534 0 10.02-4.486 10.02-10.02s-4.486-10.02-10.02-10.02h-170.196c-5.534 0-10.02 4.486-10.02 10.02s4.486 10.02 10.02 10.02z"/><path d="m151.089 191.167c-4.336-3.436-10.638-2.707-14.076 1.63l-17.933 22.63-8.076-5.463c-4.583-3.102-10.812-1.899-13.913 2.685-3.101 4.583-1.899 10.813 2.685 13.913l15.772 10.669c1.716 1.16 3.67 1.721 5.608 1.721 2.965 0 5.89-1.313 7.859-3.797l23.704-29.912c3.436-4.337 2.707-10.639-1.63-14.076z"/><path d="m177.723 323h170.196c5.534 0 10.02-4.486 10.02-10.02s-4.486-10.02-10.02-10.02h-170.196c-5.534 0-10.02 4.486-10.02 10.02s4.486 10.02 10.02 10.02z"/><path d="m151.089 275.215c-4.337-3.437-10.639-2.707-14.076 1.63l-17.933 22.63-8.076-5.463c-4.583-3.101-10.812-1.898-13.913 2.685s-1.899 10.813 2.685 13.913l15.772 10.669c1.716 1.16 3.67 1.721 5.608 1.721 2.965 0 5.89-1.313 7.859-3.797l23.704-29.912c3.436-4.337 2.707-10.639-1.63-14.076z"/><path d="m151.089 359.262c-4.336-3.436-10.638-2.708-14.076 1.63l-17.933 22.63-8.076-5.463c-4.583-3.101-10.812-1.898-13.913 2.685s-1.899 10.813 2.685 13.913l15.772 10.669c1.716 1.16 3.67 1.721 5.608 1.721 2.965 0 5.89-1.313 7.859-3.797l23.704-29.912c3.436-4.337 2.707-10.639-1.63-14.076z"/><path d="m460.325 366.091c-10.637-10.637-24.779-16.495-39.821-16.495-.795 0-1.586.019-2.376.051v-319.588c0-16.575-13.484-30.059-30.059-30.059h-322.83c-16.575 0-30.059 13.484-30.059 30.059v451.883c0 16.574 13.484 30.058 30.059 30.058h116.498c5.534 0 10.02-4.486 10.02-10.02s-4.486-10.02-10.02-10.02h-116.498c-5.525 0-10.02-4.495-10.02-10.02v-451.881c0-5.525 4.495-10.02 10.02-10.02h322.831c5.525 0 10.02 4.495 10.02 10.02v324.168c-3.757 1.63-7.341 3.668-10.685 6.108-21.982-15.679-52.793-13.662-72.504 6.048-5.934 5.934-10.376 12.961-13.148 20.625h-124.03c-5.534 0-10.02 4.486-10.02 10.02s4.486 10.02 10.02 10.02h120.703c.215 14.727 6.037 28.542 16.482 38.988l45.926 45.926h-89.263c-5.534 0-10.02 4.486-10.02 10.02s4.486 10.02 10.02 10.02c0 0 115.817-.007 115.895-.007 4.076 0 8.152-1.551 11.255-4.654l61.309-61.31.294-.295c10.637-10.637 16.495-24.779 16.495-39.822.001-15.044-5.857-29.186-16.494-39.823zm-14.175 65.479-58.683 58.683-58.397-58.397c-14.144-14.144-14.144-37.159 0-51.303 7.072-7.072 16.363-10.608 25.652-10.608 9.27 0 18.54 3.522 25.606 10.563 1.845 1.874 4.357 2.949 6.992 2.988 2.724.032 5.312-1.016 7.227-2.928l.3-.3c.002-.002.004-.004.006-.006 6.852-6.852 15.961-10.625 25.652-10.625 9.69 0 18.799 3.773 25.652 10.626 6.852 6.852 10.625 15.961 10.625 25.651-.001 9.689-3.775 18.798-10.632 25.656z"/><circle cx="226.654" cy="501.98" r="10"/></g></g></svg>